
<svg class="svgImage" version="1.1" xmlns="http://www.w3.org/2000/svg" xmlns:xlink="http://www.w3.org/1999/xlink" x="0px" y="0px"
	 viewBox="0 0 800 800" style="enable-background:new 0 0 800 800;" xml:space="preserve">
<style type="text/css">
	.st0{opacity:0.6;fill:none;stroke:#FFFFFF;stroke-miterlimit:10;}
	.st1{fill:none;stroke:#FFFFFF;stroke-miterlimit:10;}
	.st2{fill:none;stroke:#FFFFFF;stroke-linecap:round;stroke-linejoin:round;}
	.st3{opacity:0.1;fill:none;stroke:#FFFFFF;stroke-miterlimit:10;}
	.st4{opacity:0.1;}
	.st5{fill:none;stroke:#000000;stroke-miterlimit:10;}
	.st6{fill-rule:evenodd;clip-rule:evenodd;fill:none;stroke:#FFFFFF;stroke-miterlimit:10;}
	.st7{fill:none;stroke:#FFFFFF;stroke-linecap:round;stroke-linejoin:bevel;stroke-miterlimit:10;}
	.st8{opacity:0.5;fill:none;stroke:#FFFFFF;stroke-miterlimit:10;}
</style>
<g id="Background">
	<path class="st0" d="M741.7,264.4c-2.2,0-4.4,0.2-6.5,0.6c-3.7-18.1-19.7-31.7-38.9-31.7c-21,0-38.1,16.3-39.6,36.9
		c-5.6-3.7-12.3-5.9-19.4-5.9c-19.4,0-35.2,15.8-35.2,35.2c0,19.4,15.8,35.2,35.2,35.2c7.4,0,14.3-2.3,19.9-6.2
		c3.1,17.1,18.1,30,36.1,30c16.7,0,30.8-11.2,35.2-26.4c4.1,1.7,8.5,2.6,13.2,2.6c19.4,0,35.2-15.8,35.2-35.2
		C776.9,280.2,761.2,264.4,741.7,264.4z"/>
	<path class="st0" d="M254.3,420c0-12.2-9.9-22-22-22c-3.9,0-7.5,1-10.7,2.8c-5.6-3.5-12.2-5.6-19.3-5.6c-0.8,0-1.6,0.1-2.4,0.1
		c-6.2-25.7-29.4-44.8-57-44.8c-22.6,0-42.3,12.8-52,31.6c-2.2-0.3-4.4-0.6-6.6-0.6c-23.8,0-43.1,19.3-43.1,43.1
		c0,23.8,19.3,43.1,43.1,43.1c10.2,0,19.5-3.5,26.8-9.4c9.2,5.9,20.1,9.4,31.8,9.4c12.5,0,24.2-4,33.7-10.7
		c6.6,6.6,15.7,10.7,25.7,10.7c16.6,0,30.6-11.2,34.9-26.4C247.1,439.2,254.3,430.4,254.3,420z"/>
	<path class="st0" d="M718.9,717.7c0-12.2-9.9-22-22-22c-3.9,0-7.5,1-10.7,2.8c-5.6-3.5-12.2-5.6-19.3-5.6c-0.8,0-1.6,0.1-2.4,0.1
		c-6.2-25.7-29.4-44.8-57-44.8c-22.6,0-42.3,12.8-52,31.6c-2.2-0.3-4.4-0.6-6.6-0.6c-23.8,0-43.1,19.3-43.1,43.1
		c0,23.8,19.3,43.1,43.1,43.1c10.2,0,19.5-3.5,26.8-9.4c9.2,5.9,20.1,9.4,31.8,9.4c12.5,0,24.2-4,33.7-10.7
		c6.6,6.6,15.7,10.7,25.7,10.7c16.6,0,30.6-11.2,34.9-26.4C711.6,736.8,718.9,728.1,718.9,717.7z"/>
	<path class="st0" d="M317,146.3c3.8-7,6-15.1,6-23.6c0-27.2-22.1-49.3-49.3-49.3c-26.2,0-47.5,20.4-49.2,46.1
		c-2-0.3-4.1-0.6-6.3-0.6c-20.9,0-37.8,16.9-37.8,37.8c0,20.9,16.9,37.8,37.8,37.8c6.6,0,12.8-1.7,18.2-4.7c8,2.9,18.1,4.7,29,4.7
		c6.6,0,12.8-0.6,18.5-1.8c4.5,3,10,4.8,15.8,4.8c15.8,0,28.6-12.8,28.6-28.6C328.3,159.7,323.9,151.5,317,146.3z"/>
</g>
<g id="Objects">
	<g>
		
			<!-- <image style="overflow:visible;opacity:0.3;" width="403" height="362" xlink:href="7262F73E51551DD8.png"  transform="matrix(0.48 0 0 0.48 92.52 181.32)">
		</image> -->
		<g>
			<g>
				<g>
					
						<rect x="104" y="208.1" transform="matrix(0.1987 -0.9801 0.9801 0.1987 -123.0891 371.5388)" class="st1" width="123.4" height="106"/>
					<g>
						<path class="st1" d="M205.1,225c-0.7-1.5-2.4-2.1-3.9-1.4c-1.5,0.7-2.1,2.4-1.4,3.9c0.7,1.5,2.4,2.1,3.9,1.4
							C205.1,228.2,205.8,226.4,205.1,225z M200.5,227.1c-0.5-1.1,0-2.4,1.1-2.8c1.1-0.5,2.4,0,2.8,1.1c0.5,1.1,0,2.4-1.1,2.8
							C202.3,228.6,201,228.2,200.5,227.1z"/>
						<path class="st1" d="M188.6,236.7c-0.3,0-0.6,0-0.8,0C188,236.7,188.3,236.7,188.6,236.7z"/>
						<path class="st1" d="M194.9,235.9c1.8-0.5,3.7-1.2,6-2.2c3.6-1.7,6.6-4.1,8.9-6.4l-3.4-7.4c-3.2,0.2-7,0.9-10.7,2.5
							c-2.3,1.1-4.1,2.1-5.6,3.1c0,0-3.7,3.2-3.7,3.1c-0.1,0.1-0.3,0.3-0.4,0.4l1.4,3.2c3.4-1.5,6.2-2.5,6.4-2.1
							c0.1,0.3-2.4,1.8-5.8,3.4l1.4,3.2c0.2,0,0.4,0,0.6,0C190.1,236.6,194.9,235.9,194.9,235.9z M199.8,227.4
							c-0.7-1.5,0-3.2,1.4-3.9c1.5-0.7,3.2,0,3.9,1.4c0.7,1.5,0,3.2-1.4,3.9C202.2,229.5,200.5,228.9,199.8,227.4z"/>
						<path class="st1" d="M188.7,236.7C188.7,236.7,188.7,236.7,188.7,236.7c0.2,0,0.3,0,0.5,0C189,236.7,188.8,236.7,188.7,236.7z
							"/>
						<path class="st1" d="M184.9,230.4c0.2-0.2,0.4-0.4,0.5-0.6C185.3,230,185.1,230.2,184.9,230.4z"/>
						<path class="st1" d="M188.7,236.7c0.3,0,0.6,0,0.8,0c-0.1,0-0.3,0-0.4,0C189,236.7,188.8,236.7,188.7,236.7z"/>
						<path class="st1" d="M185.5,229.7c0.2-0.2,0.4-0.4,0.6-0.6C185.9,229.3,185.7,229.5,185.5,229.7z"/>
						
							<rect x="185.2" y="235.1" transform="matrix(0.9098 -0.415 0.415 0.9098 -81.2526 98.4944)" class="st1" width="1.5" height="2.3"/>
						
							<rect x="183.3" y="230.9" transform="matrix(0.9098 -0.4151 0.4151 0.9098 -79.6956 97.3421)" class="st1" width="1.5" height="2.2"/>
						<path class="st1" d="M189.9,224.8L189.9,224.8c0,0-1-1.9,0.1-3.2c0,0-7.9-1-13.6,5.4c0,0,6.5-1.5,9.7,0.9
							c0.1,0.1,0.1,0.1,0.2,0.2L189.9,224.8z"/>
						<path class="st1" d="M197.7,238.6c-1.7-0.1-2.5-2-2.5-2l0,0l-4.8,0.5c0,0.1,0,0.2,0,0.3c-0.3,4-5.7,7.9-5.7,7.9
							C193.2,245.2,197.7,238.6,197.7,238.6z"/>
						<path class="st1" d="M214.2,220.8c0,0-3-0.9-7.3-1l3.3,7.2C212.9,223.7,214.2,220.8,214.2,220.8z"/>
						<path class="st1" d="M193.9,230.1c-0.1-0.3-2.9,0.6-6.4,2.1l-1.4-3.2l0,0c0,0,0,0,0,0c-0.2,0.2-0.4,0.4-0.6,0.6
							c0,0,0,0-0.1,0.1c-0.2,0.2-0.4,0.4-0.5,0.6l1.1,2.5c-0.5,0.2-0.9,0.5-1.4,0.7c-2.5,1.3-4.1,2.5-4.1,2.5s2-0.4,4.6-1.4
							c0.5-0.2,0.9-0.4,1.4-0.6l1.1,2.5l0,0c0.3,0,0.6,0,0.8,0c-0.3,0-0.6,0-0.8,0c0.3,0,0.6,0,0.8,0c0,0,0.1,0,0.1,0
							c0.2,0,0.3,0,0.5,0c0.1,0,0.3,0,0.4,0c-0.1,0-0.3,0-0.4,0c0.1,0,0.3,0,0.4,0c0,0,0,0,0,0l0,0l-1.4-3.2
							C191.5,231.9,194,230.4,193.9,230.1z"/>
						<path class="st1" d="M204.4,225.3c-0.5-1.1-1.8-1.6-2.8-1.1c-1.1,0.5-1.6,1.8-1.1,2.8c0.5,1.1,1.8,1.6,2.8,1.1
							C204.4,227.6,204.9,226.4,204.4,225.3z"/>
						<path class="st2" d="M188.6,236.7c-0.3,0-0.6,0-0.8,0"/>
						<path class="st2" d="M189.1,236.7c-0.1,0-0.3,0-0.5,0"/>
						<line class="st2" x1="188.7" y1="236.7" x2="188.7" y2="236.7"/>
						<path class="st2" d="M189.5,236.7c-0.1,0-0.3,0-0.4,0"/>
					</g>
					<path class="st1" d="M179.7,232.5c0,0-52.2,5.3-63.8,62.7"/>
					<path class="st1" d="M181.6,237.7c-16,5.1-44.4,19.6-52.6,60.1"/>
					<path class="st1" d="M176.3,236.7c-16,5.1-46.2,19.3-54.4,59.8"/>
					
						<rect x="187.8" y="240.1" transform="matrix(0.1988 -0.98 0.98 0.1988 -99.9073 390.5249)" class="st1" width="2.2" height="32.5"/>
					
						<rect x="181.5" y="239.1" transform="matrix(0.1988 -0.98 0.98 0.1988 -109.1849 387.8441)" class="st1" width="2.2" height="43.1"/>
					
						<rect x="180.4" y="244.5" transform="matrix(0.1987 -0.9801 0.9801 0.1987 -115.3329 391.103)" class="st1" width="2.2" height="43.1"/>
					
						<rect x="179.3" y="249.9" transform="matrix(0.1987 -0.9801 0.9801 0.1987 -121.487 394.3493)" class="st1" width="2.2" height="43.1"/>
					
						<rect x="175.6" y="252.1" transform="matrix(0.1987 -0.9801 0.9801 0.1987 -129.2356 394.5674)" class="st1" width="2.2" height="48.5"/>
					
						<rect x="174.5" y="257.5" transform="matrix(0.1987 -0.9801 0.9801 0.1987 -135.3897 397.8135)" class="st1" width="2.2" height="48.5"/>
					
						<rect x="173.4" y="262.8" transform="matrix(0.1987 -0.9801 0.9801 0.1987 -141.539 401.072)" class="st1" width="2.2" height="48.5"/>
					
						<rect x="170" y="265.4" transform="matrix(0.1987 -0.9801 0.9801 0.1987 -149.0891 401.6702)" class="st1" width="2.2" height="53.2"/>
					
						<rect x="168.9" y="270.8" transform="matrix(0.1987 -0.9801 0.9801 0.1987 -155.2467 404.903)" class="st1" width="2.2" height="53.2"/>
					
						<rect x="167.8" y="276.2" transform="matrix(0.1988 -0.98 0.98 0.1988 -161.405 408.1345)" class="st1" width="2.2" height="53.2"/>
					<polygon class="st1" points="194.5,315.7 208.1,318.5 191.8,329.3 					"/>
				</g>
				<g>
					
						<rect x="192.8" y="249.1" transform="matrix(0.9013 -0.4333 0.4333 0.9013 -88.9715 124.0609)" class="st1" width="69.8" height="16.2"/>
					
						<rect x="190.2" y="249.7" transform="matrix(0.9012 -0.4334 0.4334 0.9012 -86.8774 122.4312)" class="st1" width="69.8" height="4.1"/>
					
						<rect x="195.5" y="260.7" transform="matrix(0.9012 -0.4333 0.4333 0.9012 -91.0966 125.7653)" class="st1" width="69.8" height="4.1"/>
					<polygon class="st1" points="199.8,279.7 176.2,282 192.8,265.1 					"/>
					<polygon class="st1" points="181.7,276.4 176.2,282 184,281.2 					"/>
				</g>
			</g>
		</g>
	</g>
	<g>
		
			<!-- <image style="overflow:visible;opacity:0.3;" width="343" height="99" xlink:href="7262F73E51551DD9.png"  transform="matrix(0.48 0 0 0.48 321.48 617.16)">
		</image> -->
		<g>
			<g>
				<rect x="330.1" y="626.1" class="st1" width="107.9" height="15.5"/>
				<rect x="330.1" y="637.7" class="st1" width="107.9" height="3.9"/>
				<rect x="330.1" y="626.1" class="st1" width="107.9" height="3.9"/>
				<polygon class="st1" points="438,626.2 462.2,633.9 438,641.6 				"/>
				<polygon class="st1" points="454.2,636.4 462.2,633.9 454.2,631.3 				"/>
			</g>
		</g>
	</g>
	<g>
		
			<!-- <image style="overflow:visible;opacity:0.3;" width="362" height="362" xlink:href="7262F73E51551DDF.png"  transform="matrix(0.48 0 0 0.48 441.96 357)">
		</image> -->
		<g>
			<g>
				<path class="st1" d="M502.8,394.8c23.1-10.3,50.1-0.1,60.7,22.9c4,8.7,5.1,18,3.6,26.9l24.4,4.4c2.3-13.6,0.7-28.1-5.5-41.6
					c-16.3-35.5-58.1-51.1-93.6-35.1L502.8,394.8z"/>
				<path class="st1" d="M566.9,445.6c-1.8,9.5-6.6,18.2-13.7,25l16.8,18.3c11.2-10.4,18.6-24.1,21.3-38.9L566.9,445.6z"/>
				<path class="st1" d="M476.6,447c-4.7-20.6,5.4-42.4,25.3-51.8l-10.4-22.6c-30.8,14.4-46.4,48.2-39.1,80.1L476.6,447z"/>
				<path class="st1" d="M552.4,471.2c-3.4,3-7.3,5.6-11.6,7.6c-23.2,10.6-50.5,0.5-61.2-22.7c-1.2-2.7-2.2-5.4-2.8-8.1l-24.2,5.7
					c1.1,4.3,2.5,8.6,4.4,12.7c16.3,35.6,58.5,51.2,94.1,34.9c6.8-3.1,12.8-7.1,18-11.9L552.4,471.2z"/>
			</g>
		</g>
	</g>
	<g>
		
			<!-- <image style="overflow:visible;opacity:0.3;" width="418" height="474" xlink:href="7262F73E51551DDA.png"  transform="matrix(0.48 0 0 0.48 545.64 140.04)">
		</image> -->
		<g>
			<g>
				<path class="st1" d="M628.9,344.7c-41,0-74.4-33.4-74.4-74.4c0-41,33.4-74.4,74.4-74.4s74.4,33.4,74.4,74.4
					C703.3,311.3,669.9,344.7,628.9,344.7z"/>
				<path class="st1" d="M628.9,329.8c-32.8,0-59.5-26.7-59.5-59.5c0-32.8,26.7-59.5,59.5-59.5c32.8,0,59.5,26.7,59.5,59.5
					C688.4,303.1,661.7,329.8,628.9,329.8z"/>
				<path class="st1" d="M628.9,314.9c-24.6,0-44.6-20-44.6-44.6c0-24.6,20-44.6,44.6-44.6c24.6,0,44.6,20,44.6,44.6
					C673.5,294.9,653.5,314.9,628.9,314.9z"/>
				<path class="st1" d="M628.9,300c-16.4,0-29.7-13.3-29.7-29.7c0-16.4,13.3-29.7,29.7-29.7s29.7,13.3,29.7,29.7
					C658.6,286.6,645.2,300,628.9,300z"/>
				<path class="st1" d="M643.7,270.3c0,8.2-6.6,14.8-14.8,14.8c-8.2,0-14.8-6.6-14.8-14.8c0-8.2,6.6-14.8,14.8-14.8
					C637,255.5,643.7,262.1,643.7,270.3z"/>
				<line class="st3" x1="627.7" y1="270.3" x2="680.8" y2="323.4"/>
				<line class="st3" x1="628.9" y1="270.3" x2="693.1" y2="307.7"/>
				<g>
					<g>
						<path class="st1" d="M628.9,272.4c-0.5,0-1.1-0.2-1.5-0.6c-0.8-0.8-0.8-2.2,0-3l56.4-56.4c0.8-0.8,2.2-0.8,3,0
							c0.8,0.8,0.8,2.2,0,3l-56.4,56.4C630,272.2,629.4,272.4,628.9,272.4z"/>
					</g>
					<g>
						<g>
							<polygon class="st1" points="683.7,213.6 688.9,192.6 704.8,176.7 704.8,194.3 722.4,194.3 706.5,210.2 685.6,215.4 							
								"/>
						</g>
					</g>
				</g>
				<g>
					<g>
						<path class="st1" d="M627.7,272.4c-0.1,0-0.1,0-0.2,0c-1.2-0.1-2-1.2-1.9-2.3l8.1-79.3c0.1-1.2,1.2-2,2.3-1.9
							c1.2,0.1,2,1.2,1.9,2.3l-8.1,79.3C629.7,271.6,628.7,272.4,627.7,272.4z"/>
					</g>
					<g>
						<g>
							<polygon class="st1" points="634.4,191.7 625.1,172.1 627.4,149.7 638.6,163.4 652.2,152.3 649.9,174.7 636.9,191.9 							
								"/>
						</g>
					</g>
				</g>
			</g>
		</g>
	</g>
	<g>
		
			<!-- <image style="overflow:visible;opacity:0.3;" width="660" height="270" xlink:href="7262F73E51551DDB.png"  transform="matrix(0.48 0 0 0.48 322.92 463.08)">
		</image> -->
		<g>
			<path class="st1" d="M616.6,538.4c-1.4-0.6-2.8-1.2-4.3-1.6c-5-20-23.1-34.9-44.6-34.9c-3.5,0-6.9,0.4-10.2,1.1
				c-10.4-18.5-30.3-31.1-53.1-31.1c-23.9,0-44.6,13.8-54.6,33.8c-7.9-3.8-16.8-5.9-26.1-5.9c-29.3,0-53.7,20.6-59.6,48.1
				c-13,3.5-24.2,11.2-32.2,21.6h284.7V538.4z"/>
		</g>
	</g>
	<g>
		
			<!-- <image style="overflow:visible;opacity:0.3;" width="629" height="240" xlink:href="7262F73E51551DD6.png"  transform="matrix(0.48 0 0 0.48 181.8 477.48)">
		</image> -->
		<g>
			<path class="st1" d="M190.6,569.6h269.1c-5.1-3.2-10.7-5.7-16.6-7.4c-5.9-27.5-30.3-48.1-59.6-48.1c-9.3,0-18.2,2.1-26.1,5.9
				c-10-20.1-30.7-33.8-54.6-33.8c-22.8,0-42.7,12.5-53.1,31.1c-3.3-0.7-6.7-1.1-10.2-1.1c-21.6,0-39.7,14.8-44.6,34.9
				c-1.5,0.5-2.9,1-4.3,1.7V569.6z"/>
		</g>
	</g>
	<g>
<!-- 		
			<image style="overflow:visible;opacity:0.3;" width="1242" height="728" xlink:href="7262F73E51551DD7.png"  transform="matrix(0.48 0 0 0.48 112.68 282.6)">
		</image> -->
		<g>
			<g>
				<path class="st1" d="M618.5,291.2H188.8c-5.7,0-10.4,4.7-10.4,10.4v281h450.5v-281C628.9,295.9,624.2,291.2,618.5,291.2z
					 M611.3,562.8H196V311h415.3V562.8z"/>
				<path class="st1" d="M129.4,594.1v4.9c0,5.6,4.5,10.2,10.1,10.2h528.2c5.6,0,10.1-4.6,10.1-10.2v-4.9H129.4z"/>
				<path class="st1" d="M121.2,582.3v6.1c0,7,4.6,12.8,10.4,12.8h544c5.7,0,10.4-5.7,10.4-12.8v-6.1H121.2z"/>
				<path class="st1" d="M357.4,582.3c0.5,4.6,4.3,8.2,9,8.2h74.4c4.7,0,8.5-3.6,9-8.2H357.4z"/>
				<path class="st1" d="M412.7,301.8c0,4.1-3.3,7.4-7.4,7.4c-4.1,0-7.4-3.3-7.4-7.4c0-4.1,3.3-7.4,7.4-7.4
					C409.4,294.4,412.7,297.7,412.7,301.8z"/>
				<path class="st1" d="M401,301.9c0-2.4,2-4.4,4.4-4.4c2.4,0,4.4,2,4.4,4.4c0,2.4-2,4.4-4.4,4.4C403,306.2,401,304.3,401,301.9z"
					/>
				<path class="st1" d="M401,302.3c0-2.2,1.8-3.9,3.9-3.9c2.2,0,3.9,1.8,3.9,3.9c0,2.2-1.8,3.9-3.9,3.9
					C402.8,306.2,401,304.5,401,302.3z"/>
				<path class="st1" d="M407.8,300.8c0,0.7-0.6,1.3-1.3,1.3c-0.7,0-1.3-0.6-1.3-1.3c0-0.7,0.6-1.3,1.3-1.3
					C407.2,299.4,407.8,300,407.8,300.8z"/>
			</g>
		</g>
	</g>
	<g>
<!-- 		
			<image style="overflow:visible;opacity:0.3;" width="413" height="841" xlink:href="7262F73E51551DE8.png"  transform="matrix(0.48 0 0 0.48 239.88 134.76)">
		</image> -->
		<g>
			<g>
				<g>
					<path class="st1" d="M355.9,405h-24h-24c0,0-19.4,15.6-9.9,52.9c0,0,5.6-16,13.8-12.2c0,0-1,49.4,20,69.5
						c21-20,20-69.5,20-69.5c8.2-3.8,13.8,12.2,13.8,12.2C375.3,420.6,355.9,405,355.9,405z"/>
					<path class="st1" d="M350.8,405h-18.9h-18.9c0,0-19.8,12.3-12.3,41.6c0,0,9-12.6,15.4-9.6c0,0-0.8,38.9,15.8,54.7
						c16.5-15.8,15.8-54.7,15.8-54.7c6.5-3,15.8,9.6,15.8,9.6C371,417.3,350.8,405,350.8,405z"/>
					<path class="st1" d="M344,405h-12h-12c0,0-12.6,7.8-7.8,26.4c0,0,5.7-8,9.8-6.1c0,0-0.5,24.7,10,34.7c10.5-10,10-34.7,10-34.7
						c4.1-1.9,10,6.1,10,6.1C356.8,412.8,344,405,344,405z"/>
				</g>
				<g>
					<rect x="305.2" y="392.9" class="st1" width="53.5" height="12.1"/>
					<path class="st1" d="M287.4,339.5c0,0-16.4,0.8-22.4-11.2c0,0-32.6,53.4-5.4,114.2c0,0,10.6-53.4,40-67.1L287.4,339.5z"/>
					<path class="st1" d="M376.5,339.5c0,0,16.4,0.8,22.4-11.2c0,0,32.6,53.4,5.4,114.2c0,0-10.6-53.4-40-67.1L376.5,339.5z"/>
					<path class="st1" d="M358.7,392.9c13-26,21.6-53.4,21.6-103.7c0-80-48.3-144.9-48.3-144.9s-48.3,64.9-48.3,144.9
						c0,50.3,8.6,77.7,21.6,103.7H358.7z"/>
					<path class="st1" d="M299.4,380.5c1.8,4.2,3.7,8.3,5.8,12.4h53.5c2-4.1,4-8.2,5.8-12.4H299.4z"/>
					<path class="st1" d="M363.8,205.1c-14-36.8-31.9-60.8-31.9-60.8s-17.9,24-31.9,60.8H363.8z"/>
					<path class="st1" d="M326.6,385.4c0,31.5,5.4,57.1,5.4,57.1s5.4-25.6,5.4-57.1c0-31.5-2.4-57.1-5.4-57.1
						C329,328.3,326.6,353.8,326.6,385.4z"/>
					<path class="st1" d="M354.7,254.2c0,12.6-10.2,22.8-22.8,22.8c-12.6,0-22.8-10.2-22.8-22.8c0-12.6,10.2-22.8,22.8-22.8
						C344.5,231.4,354.7,241.6,354.7,254.2z"/>
					<path class="st1" d="M348.8,254.2c0,9.3-7.5,16.8-16.8,16.8c-9.3,0-16.8-7.5-16.8-16.8c0-9.3,7.5-16.8,16.8-16.8
						C341.2,237.4,348.8,244.9,348.8,254.2z"/>
				</g>
				<g>
					<path class="st1" d="M336.7,405h22v-12.1h-21.5C337.1,397.1,336.9,401.1,336.7,405z"/>
					<path class="st1" d="M398.9,328.3c-6,12-22.4,11.2-22.4,11.2l0,0c-2.4,14.1-5.9,25.9-10.3,36.9c28,15.1,38.1,66.1,38.1,66.1
						C431.4,381.7,398.9,328.3,398.9,328.3z"/>
					<path class="st1" d="M332.4,145c0.1,0.1,0.2,0.2,0.2,0.3C332.6,145.2,332.5,145.1,332.4,145z"/>
					<path class="st1" d="M332,144.5c0,0,0.1,0.1,0.1,0.1C332.1,144.6,332.1,144.5,332,144.5z"/>
					<path class="st1" d="M380.3,289.2c0-71-38-130-46.6-142.4c4.8,7,18.7,28.4,30.1,58.3H332v26.2c12.6,0,22.8,10.2,22.8,22.8
						c0,12.6-10.2,22.8-22.8,22.8v51.3c2.8,0,5.1,23,5.4,52.2h27.2c0.6-1.4,1.1-2.8,1.7-4.1c4.4-10.9,7.9-22.8,10.3-36.9
						C378.9,325.4,380.3,309.1,380.3,289.2z"/>
					<path class="st1" d="M361.6,387c-0.9,2-1.9,3.9-2.9,5.9C359.7,391,360.7,389,361.6,387z"/>
					<path class="st1" d="M332.9,145.6c0.2,0.3,0.5,0.7,0.8,1.2C333.4,146.4,333.1,146,332.9,145.6z"/>
					<path class="st1" d="M364.5,380.5c-0.9,2-1.8,4-2.7,6C362.7,384.6,363.6,382.6,364.5,380.5z"/>
					<path class="st1" d="M333.7,146.9C333.7,146.9,333.7,146.8,333.7,146.9c-0.3-0.5-0.6-0.9-0.8-1.2c-0.1-0.1-0.1-0.2-0.2-0.3
						c-0.1-0.1-0.2-0.2-0.2-0.3c-0.1-0.2-0.2-0.3-0.3-0.4c0-0.1-0.1-0.1-0.1-0.1c0-0.1-0.1-0.1-0.1-0.1v60.8h31.9
						C352.4,175.3,338.5,153.8,333.7,146.9z"/>
					<path class="st1" d="M332,328.3v52.2v12.4V405v37.5c0,0,3.3-15.6,4.7-37.5c0.3-3.8,0.4-7.9,0.6-12.1h21.5h0
						c1-2,1.9-3.9,2.9-5.9c0.1-0.2,0.2-0.3,0.2-0.5c0.9-2,1.8-4,2.7-6c0,0,0,0,0,0l0,0h-27.2C337.1,351.2,334.8,328.3,332,328.3z"/>
					<path class="st1" d="M354.7,254.2c0-12.6-10.2-22.8-22.8-22.8v6c9.3,0,16.8,7.5,16.8,16.8c0,9.3-7.5,16.8-16.8,16.8v6
						C344.5,276.9,354.7,266.7,354.7,254.2z"/>
					<path class="st1" d="M348.8,254.2c0-9.3-7.5-16.8-16.8-16.8V271C341.2,271,348.8,263.4,348.8,254.2z"/>
				</g>
			</g>
		</g>
	</g>
	<g>
		
			<!-- <image style="overflow:visible;opacity:0.3;" width="259" height="394" xlink:href="7262F73E51551DEB.png"  transform="matrix(0.48 0 0 0.48 665.16 374.76)">
		</image> -->
		<g>
			<g>
				<g>
					<path class="st1" d="M681.6,541.1c-4.2,0-7.6-3.4-7.6-7.6V391.1c0-4.2,3.4-7.6,7.6-7.6h77.3c4.2,0,7.6,3.4,7.6,7.6v142.4
						c0,4.2-3.4,7.6-7.6,7.6H681.6z"/>
					<rect x="682.3" y="395.3" class="st1" width="75.9" height="130.6"/>
					<path class="st1" d="M738.5,388.5c0,0.5-0.4,0.9-0.9,0.9h-34.7c-0.5,0-0.9-0.4-0.9-0.9l0,0c0-0.5,0.4-0.9,0.9-0.9h34.7
						C738.1,387.6,738.5,388,738.5,388.5L738.5,388.5z"/>
					<path class="st1" d="M723.5,533.8c0,1.8-1.5,3.3-3.2,3.3c-1.8,0-3.3-1.5-3.3-3.3c0-1.8,1.5-3.2,3.3-3.2
						C722,530.5,723.5,532,723.5,533.8z"/>
				</g>
				<g>
					<path class="st1" d="M746.3,455.8c0,14.4-11.7,26-26,26c-14.4,0-26-11.7-26-26c0-14.4,11.7-26,26-26
						C734.6,429.7,746.3,441.4,746.3,455.8z"/>
					<path class="st1" d="M720.2,434.2c-11.9,0-21.6,9.7-21.6,21.6c0,11.9,9.7,21.6,21.6,21.6c11.9,0,21.6-9.7,21.6-21.6
						C741.8,443.8,732.1,434.2,720.2,434.2z M716.4,467.7v-23.9l11.9,11.9L716.4,467.7z"/>
				</g>
				<g>
					<path class="st1" d="M758.9,383.4h-38.8v4.1h17.5c0.5,0,0.9,0.4,0.9,0.9c0,0.5-0.4,0.9-0.9,0.9h-17.5v5.9h38.1v130.6h-38.1v4.6
						c0.1,0,0.1,0,0.2,0c1.8,0,3.2,1.5,3.2,3.2c0,1.8-1.5,3.3-3.2,3.3c-0.1,0-0.1,0-0.2,0v4.1h38.8c4.2,0,7.6-3.4,7.6-7.6V391.1
						C766.5,386.9,763.1,383.4,758.9,383.4z"/>
					<path class="st1" d="M738.5,388.5c0-0.5-0.4-0.9-0.9-0.9h-17.5v1.9h17.5C738.1,389.4,738.5,389,738.5,388.5z"/>
					<path class="st1" d="M723.5,533.8c0-1.8-1.5-3.2-3.2-3.2c-0.1,0-0.1,0-0.2,0v6.5c0.1,0,0.1,0,0.2,0
						C722,537,723.5,535.6,723.5,533.8z"/>
					<polygon class="st1" points="720.1,447.5 720.1,464 728.3,455.8 					"/>
					<path class="st1" d="M746.3,455.8c0-14.4-11.7-26-26-26c-0.1,0-0.1,0-0.2,0v4.5c0.1,0,0.1,0,0.2,0c11.9,0,21.6,9.7,21.6,21.6
						c0,11.9-9.7,21.6-21.6,21.6c-0.1,0-0.1,0-0.2,0v4.5c0.1,0,0.1,0,0.2,0C734.6,481.8,746.3,470.2,746.3,455.8z"/>
					<path class="st1" d="M741.8,455.8c0-11.9-9.7-21.6-21.6-21.6c-0.1,0-0.1,0-0.2,0v13.3l8.2,8.2l-8.2,8.2v13.3c0.1,0,0.1,0,0.2,0
						C732.1,477.4,741.8,467.7,741.8,455.8z"/>
				</g>
			</g>
		</g>
	</g>
	<g>
<!-- 		
			<image style="overflow:visible;opacity:0.3;" width="223" height="510" xlink:href="884DBC01C14D5087.png"  transform="matrix(0.48 0 0 0.48 688.68 455.4)">
		</image> -->
		<g>
			<g>
				<g>
					<g>
						<path class="st1" d="M711.4,519.3c0,0-3.3-14-10.6-12.2c-7.3,1.8,0.3,13.1-1.9,27.8c-2.2,14.7-1.4,21.9-0.7,24.5
							c0.7,2.6,18.8,32.9,20.2,36.7c0.9,2.7,0.1,8.1,0.1,8.1s38.2,5.1,45.4-0.7c0,0-1.8-17.7,1.6-30.5c3.4-12.8,7.2-29.4,7-31.7
							c-0.2-2.4-3.9-21.2-6.2-24c-2.4-2.8-9.2-3.9-9.2-3.9s-3.7-13-13.5-8.5c0,0-3.1-14.5-14.1-6l-0.5-24.6c0,0,0.6-10.4-7.8-10.2
							c-8.4,0.2-9.4,8.1-8.9,14.3C712.8,484.7,711.5,517.7,711.4,519.3z"/>
						<g>
							<path class="st1" d="M698,509.2c0,0,1.9-1.3,3.2,0.6c1.2,2,2.2,9.7,2.2,9.7s-0.4,1.5-4.6,1.8c0,0-0.8-5-0.9-6.1
								C697.7,514,697.1,511.6,698,509.2z"/>
						</g>
						<g>
							<path class="st1" d="M715.5,468.1c0,0,5.8-1.8,11,0.6l0.6,8.9c0,0-8.1,3-12.5-0.2L715.5,468.1z"/>
						</g>
					</g>
				</g>
				<rect x="716.4" y="600.6" class="st1" width="51.7" height="9.3"/>
				<rect x="713.2" y="609.9" class="st1" width="58.1" height="67.1"/>
			</g>
		</g>
	</g>
	<g>
<!-- 		
			<image style="overflow:visible;opacity:0.3;" width="318" height="384" xlink:href="884DBC01C14D5085.png"  transform="matrix(0.48 0 0 0.48 93.48 396.84)">
		</image> -->
		<g>
			<g>
				<g>
					<g class="st4">
						<path class="st5" d="M217.7,475l5.6-21c0.3-1.2-0.4-2.5-1.7-2.9l-6.4-1.7c-0.4-4.7-1.6-9.3-3.6-13.6l4.7-4.7
							c0.9-0.9,0.9-2.4,0-3.3l-15.3-15.3c-0.9-0.9-2.4-0.9-3.3,0l-4.7,4.7c-4.3-2.1-9-3.3-13.6-3.6l-1.7-6.4c-0.3-1.2-1.6-2-2.9-1.7
							l-21,5.6c-1.2,0.3-2,1.6-1.6,2.9l1.7,6.4c-1.9,1.3-3.7,2.8-5.4,4.5c-1.7,1.7-3.2,3.5-4.5,5.4l-6.4-1.7
							c-1.2-0.3-2.5,0.4-2.9,1.7l-5.6,21c-0.3,1.2,0.4,2.5,1.6,2.9l6.4,1.7c0.4,4.7,1.6,9.3,3.6,13.6l-4.7,4.7
							c-0.9,0.9-0.9,2.4,0,3.3l15.3,15.3c0.9,0.9,2.4,0.9,3.3,0l4.7-4.7c4.3,2.1,9,3.3,13.6,3.6l1.7,6.4c0.3,1.2,1.6,2,2.9,1.7
							l21-5.6c1.2-0.3,2-1.6,1.7-2.9l-1.7-6.4c1.9-1.3,3.7-2.8,5.4-4.5c1.7-1.7,3.2-3.5,4.5-5.4l6.4,1.7
							C216,477,217.3,476.2,217.7,475z M186.4,462.9c-5.7,5.7-14.9,5.7-20.6,0c-5.7-5.7-5.7-14.9,0-20.6c5.7-5.7,14.9-5.7,20.6,0
							C192.1,448,192.1,457.2,186.4,462.9z"/>
						<path class="st5" d="M161.7,467c-7.9-7.9-7.9-20.9,0-28.8c7.9-7.9,20.9-7.9,28.8,0c7.9,7.9,7.9,20.9,0,28.8
							C182.6,474.9,169.6,474.9,161.7,467 M158.8,469.9c9.6,9.6,25,9.5,34.6,0c9.6-9.6,9.6-25,0-34.6c-9.6-9.6-25-9.6-34.6,0
							C149.3,444.9,149.3,460.3,158.8,469.9L158.8,469.9z"/>
						<path class="st5" d="M214.8,476.6l-6.4-1.7c-1.3,1.9-2.8,3.7-4.5,5.4c-1.7,1.7-3.5,3.2-5.4,4.5l1.7,6.4
							c0.3,1.2-0.4,2.5-1.7,2.9l-21,5.6c-1.2,0.3-2.5-0.4-2.9-1.7l-1.7-6.4c-4.7-0.4-9.3-1.6-13.6-3.6l-4.7,4.7
							c-0.9,0.9-2.4,0.9-3.3,0l-7.5-7.5l22.2-22.2c5.7,5.5,14.8,5.5,20.5-0.1c5.6-5.6,5.7-14.8,0.1-20.5l22.2-22.2l7.5,7.5
							c0.9,0.9,0.9,2.4,0,3.3l-4.7,4.7c2.1,4.3,3.3,9,3.6,13.6l6.4,1.7c1.2,0.3,2,1.6,1.7,2.9l-5.6,21
							C217.3,476.2,216,477,214.8,476.6z"/>
						<path class="st5" d="M159,470l2.9-2.9c8,7.8,20.8,7.8,28.7-0.1c7.9-7.9,7.9-20.7,0.1-28.7l2.9-2.9c9.4,9.6,9.4,24.9-0.1,34.4
							C183.9,479.4,168.5,479.4,159,470z"/>
					</g>
					<g>
						<g>
							<g>
								<path class="st1" d="M214.7,475l5.6-21c0.3-1.2-0.4-2.5-1.7-2.9l-6.4-1.7c-0.4-4.7-1.6-9.3-3.6-13.6l4.7-4.7
									c0.9-0.9,0.9-2.4,0-3.3L198,412.5c-0.9-0.9-2.4-0.9-3.3,0l-4.7,4.7c-4.3-2.1-9-3.3-13.6-3.6l-1.7-6.4
									c-0.3-1.2-1.6-2-2.9-1.7l-21,5.6c-1.2,0.3-2,1.6-1.6,2.9l1.7,6.4c-1.9,1.3-3.7,2.8-5.4,4.5c-1.7,1.7-3.2,3.5-4.5,5.4
									l-6.4-1.7c-1.2-0.3-2.5,0.4-2.9,1.7l-5.6,21c-0.3,1.2,0.4,2.5,1.6,2.9l6.4,1.7c0.4,4.7,1.6,9.3,3.6,13.6l-4.7,4.7
									c-0.9,0.9-0.9,2.4,0,3.3l15.3,15.3c0.9,0.9,2.4,0.9,3.3,0l4.7-4.7c4.3,2.1,9,3.3,13.6,3.6l1.7,6.4c0.3,1.2,1.6,2,2.9,1.7
									l21-5.6c1.2-0.3,2-1.6,1.7-2.9l-1.7-6.4c1.9-1.3,3.7-2.8,5.4-4.5c1.7-1.7,3.2-3.5,4.5-5.4l6.4,1.7
									C213.1,477,214.4,476.2,214.7,475z M183.5,462.9c-5.7,5.7-14.9,5.7-20.6,0c-5.7-5.7-5.7-14.9,0-20.6
									c5.7-5.7,14.9-5.7,20.6,0C189.2,448,189.2,457.2,183.5,462.9z"/>
								<path class="st1" d="M158.8,467c-7.9-7.9-7.9-20.9,0-28.8c7.9-7.9,20.9-7.9,28.8,0c7.9,7.9,7.9,20.9,0,28.8
									C179.6,474.9,166.7,474.9,158.8,467 M155.9,469.9c9.6,9.6,25,9.5,34.6,0c9.6-9.6,9.6-25,0-34.6c-9.6-9.6-25-9.6-34.6,0
									C146.3,444.9,146.3,460.3,155.9,469.9L155.9,469.9z"/>
							</g>
							<g>
								<path class="st1" d="M211.9,476.6l-6.4-1.7c-1.3,1.9-2.8,3.7-4.5,5.4c-1.7,1.7-3.5,3.2-5.4,4.5l1.7,6.4
									c0.3,1.2-0.4,2.5-1.7,2.9l-21,5.6c-1.2,0.3-2.5-0.4-2.9-1.7l-1.7-6.4c-4.7-0.4-9.3-1.6-13.6-3.6l-4.7,4.7
									c-0.9,0.9-2.4,0.9-3.3,0l-7.5-7.5L163,463c5.7,5.5,14.8,5.5,20.5-0.1c5.6-5.6,5.7-14.8,0.1-20.5l22.2-22.2l7.5,7.5
									c0.9,0.9,0.9,2.4,0,3.3l-4.7,4.7c2.1,4.3,3.3,9,3.6,13.6l6.4,1.7c1.2,0.3,2,1.6,1.7,2.9l-5.6,21
									C214.4,476.2,213.1,477,211.9,476.6z"/>
								<path class="st1" d="M156,470l2.9-2.9c8,7.8,20.8,7.8,28.7-0.1c7.9-7.9,7.9-20.7,0.1-28.7l2.9-2.9
									c9.4,9.6,9.4,24.9-0.1,34.4C181,479.4,165.6,479.4,156,470z"/>
							</g>
						</g>
					</g>
				</g>
				<g>
					<g>
						<g class="st4">
							<path class="st5" d="M152.7,532.9c6.1-6.1,6.1-16.2,0-22.3c-6.1-6.1-16.2-6.1-22.3,0c-6.1,6.1-6.1,16.2,0,22.3
								C136.6,539,146.6,539,152.7,532.9z M149.6,529.7c-4.4,4.4-11.5,4.4-15.9,0c-4.4-4.4-4.4-11.5,0-15.9c4.4-4.4,11.5-4.4,15.9,0
								C154,518.1,154,525.3,149.6,529.7z"/>
							<path class="st5" d="M173.7,539l4.3-16.2c0.3-1-0.3-2-1.3-2.2l-5-1.3c-0.3-3.6-1.2-7.2-2.8-10.6l3.6-3.6
								c0.7-0.7,0.7-1.8,0-2.6l-11.9-11.9c-0.7-0.7-1.8-0.7-2.6,0l-3.6,3.6c-3.4-1.6-6.9-2.5-10.6-2.8l-1.3-5
								c-0.3-1-1.3-1.5-2.2-1.3l-16.2,4.3c-1,0.3-1.5,1.2-1.3,2.2l1.3,5c-1.5,1-2.9,2.2-4.2,3.5c-1.3,1.3-2.5,2.7-3.5,4.2l-5-1.3
								c-1-0.3-2,0.3-2.2,1.3l-4.3,16.2c-0.3,1,0.3,2,1.3,2.2l5,1.3c0.3,3.6,1.2,7.2,2.8,10.6l-3.6,3.6c-0.7,0.7-0.7,1.8,0,2.6
								l11.9,11.9c0.7,0.7,1.8,0.7,2.6,0l3.6-3.6c3.4,1.6,6.9,2.5,10.6,2.8l1.3,5c0.3,1,1.2,1.5,2.2,1.3l16.2-4.3
								c1-0.3,1.5-1.2,1.3-2.2l-1.3-5c1.5-1,2.9-2.2,4.2-3.5c1.3-1.3,2.5-2.7,3.5-4.2l5,1.3C172.5,540.6,173.5,540,173.7,539z
								 M155,535.1c-7.4,7.4-19.4,7.4-26.8,0c-7.4-7.4-7.4-19.4,0-26.8c7.4-7.4,19.4-7.4,26.8,0C162.4,515.7,162.4,527.7,155,535.1z
								"/>
						</g>
						<g>
							<g>
								<path class="st1" d="M149.8,532.9c6.1-6.1,6.1-16.2,0-22.3c-6.1-6.1-16.2-6.1-22.3,0c-6.1,6.1-6.1,16.2,0,22.3
									C133.7,539,143.7,539,149.8,532.9z M146.6,529.7c-4.4,4.4-11.5,4.4-15.9,0c-4.4-4.4-4.4-11.5,0-15.9
									c4.4-4.4,11.5-4.4,15.9,0C151,518.1,151,525.3,146.6,529.7z"/>
								<path class="st1" d="M170.8,539l4.3-16.2c0.3-1-0.3-2-1.3-2.2l-5-1.3c-0.3-3.6-1.2-7.2-2.8-10.6l3.6-3.6
									c0.7-0.7,0.7-1.8,0-2.6l-11.9-11.9c-0.7-0.7-1.8-0.7-2.6,0l-3.6,3.6c-3.4-1.6-6.9-2.5-10.6-2.8l-1.3-5
									c-0.3-1-1.3-1.5-2.2-1.3l-16.2,4.3c-1,0.3-1.5,1.2-1.3,2.2l1.3,5c-1.5,1-2.9,2.2-4.2,3.5c-1.3,1.3-2.5,2.7-3.5,4.2l-5-1.3
									c-1-0.3-2,0.3-2.2,1.3l-4.3,16.2c-0.3,1,0.3,2,1.3,2.2l5,1.3c0.3,3.6,1.2,7.2,2.8,10.6l-3.6,3.6c-0.7,0.7-0.7,1.8,0,2.6
									l11.9,11.9c0.7,0.7,1.8,0.7,2.6,0l3.6-3.6c3.4,1.6,6.9,2.5,10.6,2.8l1.3,5c0.3,1,1.2,1.5,2.2,1.3l16.2-4.3
									c1-0.3,1.5-1.2,1.3-2.2l-1.3-5c1.5-1,2.9-2.2,4.2-3.5c1.3-1.3,2.5-2.7,3.5-4.2l5,1.3C169.6,540.6,170.6,540,170.8,539z
									 M152,535.1c-7.4,7.4-19.4,7.4-26.8,0c-7.4-7.4-7.4-19.4,0-26.8c7.4-7.4,19.4-7.4,26.8,0C159.4,515.7,159.4,527.7,152,535.1
									z"/>
							</g>
						</g>
					</g>
					<g>
						<g class="st4">
							<path class="st5" d="M130.4,532.9c-0.2-0.2-0.4-0.4-0.6-0.6l3.2-3.2c0.2,0.2,0.3,0.4,0.5,0.6c4.4,4.4,11.5,4.4,15.9,0
								c4.4-4.4,4.4-11.5,0-15.9c-0.2-0.2-0.4-0.4-0.6-0.5l3.2-3.2c0.2,0.2,0.4,0.4,0.6,0.6c6.1,6.1,6.1,16.2,0,22.3
								C146.6,539,136.6,539,130.4,532.9z"/>
							<path class="st5" d="M171.5,540.3l-5-1.3c-1,1.5-2.2,2.9-3.5,4.2c-1.3,1.3-2.7,2.5-4.2,3.5l1.3,5c0.3,1-0.3,2-1.3,2.2
								l-16.2,4.3c-1,0.3-2-0.3-2.2-1.3l-1.3-5c-3.6-0.3-7.2-1.2-10.6-2.8l-3.6,3.6c-0.7,0.7-1.8,0.7-2.6,0l-6.5-6.5l11.8-11.8
								c0.2,0.2,0.4,0.4,0.6,0.6c7.4,7.4,19.4,7.4,26.8,0c7.4-7.4,7.4-19.4,0-26.8c-0.2-0.2-0.4-0.4-0.6-0.6l11.8-11.8l6.5,6.5
								c0.7,0.7,0.7,1.8,0,2.6l-3.6,3.6c1.6,3.4,2.5,6.9,2.8,10.6l5,1.3c1,0.3,1.5,1.2,1.3,2.2l-4.3,16.2
								C173.5,540,172.5,540.6,171.5,540.3z"/>
						</g>
						<g>
							<g>
								<path class="st1" d="M127.5,532.9c-0.2-0.2-0.4-0.4-0.6-0.6l3.2-3.2c0.2,0.2,0.3,0.4,0.5,0.6c4.4,4.4,11.5,4.4,15.9,0
									c4.4-4.4,4.4-11.5,0-15.9c-0.2-0.2-0.4-0.4-0.6-0.5l3.2-3.2c0.2,0.2,0.4,0.4,0.6,0.6c6.1,6.1,6.1,16.2,0,22.3
									C143.7,539,133.7,539,127.5,532.9z"/>
								<path class="st1" d="M168.6,540.3l-5-1.3c-1,1.5-2.2,2.9-3.5,4.2c-1.3,1.3-2.7,2.5-4.2,3.5l1.3,5c0.3,1-0.3,2-1.3,2.2
									l-16.2,4.3c-1,0.3-2-0.3-2.2-1.3l-1.3-5c-3.6-0.3-7.2-1.2-10.6-2.8l-3.6,3.6c-0.7,0.7-1.8,0.7-2.6,0l-6.5-6.5l11.8-11.8
									c0.2,0.2,0.4,0.4,0.6,0.6c7.4,7.4,19.4,7.4,26.8,0c7.4-7.4,7.4-19.4,0-26.8c-0.2-0.2-0.4-0.4-0.6-0.6l11.8-11.8l6.5,6.5
									c0.7,0.7,0.7,1.8,0,2.6l-3.6,3.6c1.6,3.4,2.5,6.9,2.8,10.6l5,1.3c1,0.3,1.5,1.2,1.3,2.2l-4.3,16.2
									C170.6,540,169.6,540.6,168.6,540.3z"/>
							</g>
						</g>
					</g>
				</g>
			</g>
		</g>
	</g>
	<g>
		
			<!-- <image style="overflow:visible;opacity:0.3;" width="250" height="277" xlink:href="884DBC01C14D5083.png"  transform="matrix(0.48 0 0 0.48 18.6 574.44)">
		</image> -->
		<g>
			<g>
				<path class="st6" d="M108,683.7l3-2.2c2-1.4,2.4-4.2,1-6.1L95.9,653c-1.4-2-4.2-2.4-6.1-1l-3,2.2c-2,1.4-2.4,4.2-1,6.1
					l16.1,22.3C103.3,684.7,106,685.1,108,683.7z"/>
				<path class="st6" d="M107.3,681.5l1.9-1.4c1.2-0.9,1.5-2.6,0.6-3.9l-15.1-21c-0.9-1.2-2.6-1.5-3.9-0.6l-1.9,1.4
					c-1.2,0.9-1.5,2.6-0.6,3.9l15.1,21C104.3,682.1,106,682.4,107.3,681.5z"/>
				<path class="st6" d="M97.4,663.2c19.8-14.3,24.2-41.8,10-61.6c-14.3-19.8-41.8-24.2-61.6-10c-19.8,14.3-24.2,41.8-10,61.6
					C50.1,672.9,77.6,677.4,97.4,663.2z"/>
				<path class="st6" d="M94.8,659.6c17.8-12.8,21.8-37.7,9-55.5c-12.8-17.8-37.7-21.8-55.5-9c-17.8,12.8-21.8,37.7-9,55.5
					C52.2,668.4,77,672.4,94.8,659.6z"/>
				<path class="st6" d="M91.4,654.8c15.1-10.9,18.6-32,7.6-47.2c-10.9-15.1-32-18.6-47.2-7.6c-15.1,10.9-18.6,32-7.6,47.2
					C55.1,662.3,76.2,665.7,91.4,654.8z"/>
			</g>
		</g>
	</g>
	<g>
		
			<!-- <image style="overflow:visible;opacity:0.3;" width="436" height="313" xlink:href="884DBC01C14D509D.png"  transform="matrix(0.48 0 0 0.48 407.4 122.76)">
		</image> -->
		<g>
			<g>
				<g>
					<polygon class="st1" points="592.9,170.3 474.5,155.2 468,233.5 586.4,248.5 					"/>
					<polygon class="st1" points="468,233.5 533.7,163 586.4,248.5 					"/>
					<polygon class="st1" points="592.9,170.3 528.5,225.7 474.5,155.2 					"/>
				</g>
				<g>
					
						<rect x="427.4" y="151.2" transform="matrix(0.9278 -0.3731 0.3731 0.9278 -36.1232 195.2564)" class="st1" width="117.9" height="79.4"/>
					<polygon class="st1" points="446.5,249.8 471.6,154.4 555.9,205.8 					"/>
					<polygon class="st1" points="526.2,132.1 495.4,213.3 416.9,176.1 					"/>
				</g>
			</g>
		</g>
	</g>
	<g>
		
			<!-- <image style="overflow:visible;opacity:0.3;" width="359" height="157" xlink:href="884DBC01C14D509F.png"  transform="matrix(0.48 0 0 0.48 141.48 629.16)">
		</image> -->
		<g>
			<g>
				<path class="st1" d="M290.7,654.1c0,1-0.8,1.8-1.8,1.8h-137c-1,0-1.8-0.8-1.8-1.8l0,0c0-1,0.8-1.8,1.8-1.8h137
					C289.9,652.3,290.7,653.1,290.7,654.1L290.7,654.1z"/>
				<g>
					<g>
						<path class="st1" d="M216.9,659.7c0,12-14.1,21.7-31.6,21.7c-17.4,0-31.6-9.7-31.6-21.7c0-12,14.1-21.7,31.6-21.7
							C202.7,638,216.9,647.7,216.9,659.7z"/>
						<ellipse class="st1" cx="185.3" cy="659.7" rx="27.5" ry="18.9"/>
						<path class="st1" d="M185.3,640.8c0,0-0.1,0-0.1,0v37.7c0,0,0.1,0,0.1,0c15.2,0,27.5-8.4,27.5-18.9
							C212.8,649.3,200.5,640.8,185.3,640.8z"/>
					</g>
					<g>
						<path class="st1" d="M287.2,659.7c0,12-14.1,21.7-31.6,21.7c-17.4,0-31.6-9.7-31.6-21.7c0-12,14.1-21.7,31.6-21.7
							C273,638,287.2,647.7,287.2,659.7z"/>
						<path class="st1" d="M283.1,659.7c0,10.4-12.3,18.9-27.5,18.9c-15.2,0-27.5-8.4-27.5-18.9c0-10.4,12.3-18.9,27.5-18.9
							C270.8,640.8,283.1,649.3,283.1,659.7z"/>
						<path class="st1" d="M255.6,640.8c0,0-0.1,0-0.1,0v37.7c0,0,0.1,0,0.1,0c15.2,0,27.5-8.4,27.5-18.9
							C283.1,649.3,270.8,640.8,255.6,640.8z"/>
					</g>
				</g>
			</g>
		</g>
	</g>
	<g>
		
			<!-- <image style="overflow:visible;opacity:0.3;" width="344" height="131" xlink:href="884DBC01C14D5082.png"  transform="matrix(0.48 0 0 0.48 321.48 645.96)">
		</image> -->
		<g>
			<g>
				<rect x="331.9" y="663.9" class="st1" width="97" height="20.2"/>
				<polyline class="st7" points="455.2,666.1 455.2,654.6 390.5,654.6 				"/>
				<path class="st1" d="M461.8,662.1c1.1,0,2.1,0.9,2.1,2.1v19.4c0,1.1-0.9,2.1-2.1,2.1h-42.2c-1.1,0-2.1-0.9-2.1-2.1v-19.4
					c0-1.1,0.9-2.1,2.1-2.1H461.8z"/>
				<path class="st1" d="M460.4,685.7h1.4c1.1,0,2.1-0.9,2.1-2.1v-19.4c0-1.1-0.9-2.1-2.1-2.1h-1.4V685.7z"/>
				<path class="st1" d="M421,662.1h-1.4c-1.1,0-2.1,0.9-2.1,2.1v19.4c0,1.1,0.9,2.1,2.1,2.1h1.4V662.1z"/>
				<path class="st1" d="M333,663.8h-1.2c-1,0-1.8,0.8-1.8,1.8v16.7c0,1,0.8,1.8,1.8,1.8h1.2V663.8z"/>
			</g>
		</g>
	</g>
	<g>
<!-- 		
			<image style="overflow:visible;opacity:0.3;" width="400" height="211" xlink:href="884DBC01C14D5081.png"  transform="matrix(0.48 0 0 0.48 513 612.36)">
		</image> -->
		<g>
			<g>
				<path class="st1" d="M672.2,655.9c0,13.7-11.2,24.9-24.9,24.9s-24.9-11.2-24.9-24.9c0-13.7,11.2-24.9,24.9-24.9
					S672.2,642.2,672.2,655.9 M682.3,655.9c0-19.3-15.7-35-35-35c-19.3,0-35,15.7-35,35c0,19.3,15.7,35,35,35
					C666.6,690.9,682.3,675.2,682.3,655.9L682.3,655.9z"/>
				<path class="st8" d="M657,656.1c-4.1,0-7.4-3.3-7.4-7.4c0-4.1,3.3-7.4,7.4-7.4c4.1,0,7.4,3.3,7.4,7.4
					C664.3,652.8,661,656.1,657,656.1z"/>
				<rect x="588.3" y="651.8" class="st1" width="25.1" height="8.2"/>
				<path class="st1" d="M523,663.6c-0.8,0-1.4-0.6-1.4-1.4v-12.6c0-0.8,0.6-1.4,1.4-1.4h68.9c0.8,0,1.4,0.6,1.4,1.4v12.6
					c0,0.8-0.6,1.4-1.4,1.4H523z"/>
			</g>
		</g>
	</g>
</g>
</svg>
